<?xml version="1.0" encoding="UTF-8" standalone="no"?>
<!DOCTYPE svg PUBLIC "-//W3C//DTD SVG 1.1//EN"
 "http://www.w3.org/Graphics/SVG/1.1/DTD/svg11.dtd">
<!-- Generated by graphviz version 2.40.1 (20161225.0304)
 -->
<!-- Title: %3 Pages: 1 -->
<svg width="415pt" height="822pt"
 viewBox="0.00 0.00 415.45 821.95" xmlns="http://www.w3.org/2000/svg" xmlns:xlink="http://www.w3.org/1999/xlink">
<g id="graph0" class="graph" transform="scale(1 1) rotate(0) translate(4 817.9492)">
<title>%3</title>
<polygon fill="#ffffff" stroke="transparent" points="-4,4 -4,-817.9492 411.4517,-817.9492 411.4517,4 -4,4"/>
<!-- 0 -->
<g id="node1" class="node">
<title>0</title>
<g id="a_node1"><a xlink:title="~">
<polygon fill="#ff0000" stroke="#ff0000" points="300.0571,-813.9473 131.9849,-813.9473 131.9849,-759.9551 300.0571,-759.9551 300.0571,-813.9473"/>
<text text-anchor="middle" x="216.021" y="-801.9492" font-family="Arial" font-size="10.00" fill="#ffffff">~:0:&lt;built&#45;in method builtins.exec&gt;</text>
<text text-anchor="middle" x="216.021" y="-790.4502" font-family="Arial" font-size="10.00" fill="#ffffff">100.00%</text>
<text text-anchor="middle" x="216.021" y="-778.9512" font-family="Arial" font-size="10.00" fill="#ffffff">(10.62%)</text>
<text text-anchor="middle" x="216.021" y="-767.4521" font-family="Arial" font-size="10.00" fill="#ffffff">1×</text>
</a>
</g>
</g>
<!-- 4 -->
<g id="node2" class="node">
<title>4</title>
<g id="a_node2"><a xlink:title="&lt;string&gt;">
<polygon fill="#ef6703" stroke="#ef6703" points="269.7499,-718.9531 162.2921,-718.9531 162.2921,-664.9609 269.7499,-664.9609 269.7499,-718.9531"/>
<text text-anchor="middle" x="216.021" y="-706.9551" font-family="Arial" font-size="10.00" fill="#ffffff">&lt;string&gt;:1:&lt;module&gt;</text>
<text text-anchor="middle" x="216.021" y="-695.4561" font-family="Arial" font-size="10.00" fill="#ffffff">89.38%</text>
<text text-anchor="middle" x="216.021" y="-683.957" font-family="Arial" font-size="10.00" fill="#ffffff">(0.51%)</text>
<text text-anchor="middle" x="216.021" y="-672.458" font-family="Arial" font-size="10.00" fill="#ffffff">1×</text>
</a>
</g>
</g>
<!-- 0&#45;&gt;4 -->
<g id="edge1" class="edge">
<title>0&#45;&gt;4</title>
<path fill="none" stroke="#ef6703" stroke-width="3.58" d="M216.021,-759.7297C216.021,-750.0907 216.021,-739.0802 216.021,-728.7767"/>
<polygon fill="#ef6703" stroke="#ef6703" stroke-width="3.58" points="219.3461,-728.6825 216.021,-719.1825 212.6961,-728.6825 219.3461,-728.6825"/>
<text text-anchor="middle" x="232.979" y="-742.9531" font-family="Arial" font-size="10.00" fill="#ef6703">89.38%</text>
<text text-anchor="middle" x="232.979" y="-731.4541" font-family="Arial" font-size="10.00" fill="#ef6703">1×</text>
</g>
<!-- 3 -->
<g id="node7" class="node">
<title>3</title>
<g id="a_node7"><a xlink:title="~">
<polygon fill="#ee6c03" stroke="#ee6c03" points="299.3876,-623.959 132.6544,-623.959 132.6544,-569.9668 299.3876,-569.9668 299.3876,-623.959"/>
<text text-anchor="middle" x="216.021" y="-611.9609" font-family="Arial" font-size="10.00" fill="#ffffff">~:0:&lt;built&#45;in method builtins.print&gt;</text>
<text text-anchor="middle" x="216.021" y="-600.4619" font-family="Arial" font-size="10.00" fill="#ffffff">88.87%</text>
<text text-anchor="middle" x="216.021" y="-588.9629" font-family="Arial" font-size="10.00" fill="#ffffff">(2.05%)</text>
<text text-anchor="middle" x="216.021" y="-577.4639" font-family="Arial" font-size="10.00" fill="#ffffff">1×</text>
</a>
</g>
</g>
<!-- 4&#45;&gt;3 -->
<g id="edge6" class="edge">
<title>4&#45;&gt;3</title>
<path fill="none" stroke="#ee6c03" stroke-width="3.55" d="M216.021,-664.7355C216.021,-655.0965 216.021,-644.0861 216.021,-633.7825"/>
<polygon fill="#ee6c03" stroke="#ee6c03" stroke-width="3.55" points="219.3111,-633.5883 216.021,-624.1884 212.7311,-633.5884 219.3111,-633.5883"/>
<text text-anchor="middle" x="232.979" y="-647.959" font-family="Arial" font-size="10.00" fill="#ee6c03">88.87%</text>
<text text-anchor="middle" x="232.979" y="-636.46" font-family="Arial" font-size="10.00" fill="#ee6c03">1×</text>
</g>
<!-- 2 -->
<g id="node3" class="node">
<title>2</title>
<g id="a_node3"><a xlink:title="/Users/mattijnvanhoek/Library/Python/3.7/lib/python/site&#45;packages/ipykernel/iostream.py">
<polygon fill="#eb7d03" stroke="#eb7d03" points="264.7207,-528.9648 167.3213,-528.9648 167.3213,-474.9727 264.7207,-474.9727 264.7207,-528.9648"/>
<text text-anchor="middle" x="216.021" y="-516.9668" font-family="Arial" font-size="10.00" fill="#ffffff">iostream:382:write</text>
<text text-anchor="middle" x="216.021" y="-505.4678" font-family="Arial" font-size="10.00" fill="#ffffff">86.82%</text>
<text text-anchor="middle" x="216.021" y="-493.9688" font-family="Arial" font-size="10.00" fill="#ffffff">(4.62%)</text>
<text text-anchor="middle" x="216.021" y="-482.4697" font-family="Arial" font-size="10.00" fill="#ffffff">2×</text>
</a>
</g>
</g>
<!-- 6 -->
<g id="node4" class="node">
<title>6</title>
<g id="a_node4"><a xlink:title="/Users/mattijnvanhoek/Library/Python/3.7/lib/python/site&#45;packages/ipykernel/iostream.py">
<polygon fill="#0d1174" stroke="#0d1174" points="198.0894,-433.9707 31.9526,-433.9707 31.9526,-379.9785 198.0894,-379.9785 198.0894,-433.9707"/>
<text text-anchor="middle" x="115.021" y="-421.9727" font-family="Arial" font-size="10.00" fill="#ffffff">iostream:307:_is_master_process</text>
<text text-anchor="middle" x="115.021" y="-410.4736" font-family="Arial" font-size="10.00" fill="#ffffff">1.03%</text>
<text text-anchor="middle" x="115.021" y="-398.9746" font-family="Arial" font-size="10.00" fill="#ffffff">(0.86%)</text>
<text text-anchor="middle" x="115.021" y="-387.4756" font-family="Arial" font-size="10.00" fill="#ffffff">2×</text>
</a>
</g>
</g>
<!-- 2&#45;&gt;6 -->
<g id="edge2" class="edge">
<title>2&#45;&gt;6</title>
<path fill="none" stroke="#0d1174" stroke-width=".5" d="M187.0784,-474.7472C174.4,-462.8227 159.4899,-448.7992 146.5321,-436.6119"/>
<polygon fill="#0d1174" stroke="#0d1174" stroke-width=".5" points="147.3566,-435.7057 143.9678,-434.2001 145.678,-437.4904 147.3566,-435.7057"/>
<text text-anchor="middle" x="192.1982" y="-457.9707" font-family="Arial" font-size="10.00" fill="#0d1174">1.03%</text>
<text text-anchor="middle" x="192.1982" y="-446.4717" font-family="Arial" font-size="10.00" fill="#0d1174">2×</text>
</g>
<!-- 8 -->
<g id="node5" class="node">
<title>8</title>
<g id="a_node5"><a xlink:title="/Users/mattijnvanhoek/Library/Python/3.7/lib/python/site&#45;packages/ipykernel/iostream.py">
<polygon fill="#dec505" stroke="#dec505" points="283.1369,-338.9766 166.9051,-338.9766 166.9051,-284.9844 283.1369,-284.9844 283.1369,-338.9766"/>
<text text-anchor="middle" x="225.021" y="-326.9785" font-family="Arial" font-size="10.00" fill="#ffffff">iostream:195:schedule</text>
<text text-anchor="middle" x="225.021" y="-315.4795" font-family="Arial" font-size="10.00" fill="#ffffff">77.91%</text>
<text text-anchor="middle" x="225.021" y="-303.9805" font-family="Arial" font-size="10.00" fill="#ffffff">(3.25%)</text>
<text text-anchor="middle" x="225.021" y="-292.4814" font-family="Arial" font-size="10.00" fill="#ffffff">3×</text>
</a>
</g>
</g>
<!-- 2&#45;&gt;8 -->
<g id="edge3" class="edge">
<title>2&#45;&gt;8</title>
<path fill="none" stroke="#bcd506" stroke-width="2.88" d="M216.6288,-474.8224C217.2541,-450.0919 218.3821,-412.5653 220.105,-379.9766 220.6615,-369.4501 221.4258,-358.0181 222.1859,-347.5846"/>
<polygon fill="#bcd506" stroke="#bcd506" stroke-width="2.88" points="225.1534,-347.795 222.8188,-339.0972 219.2199,-347.3524 225.1534,-347.795"/>
<text text-anchor="middle" x="237.979" y="-410.4736" font-family="Arial" font-size="10.00" fill="#bcd506">71.92%</text>
<text text-anchor="middle" x="237.979" y="-398.9746" font-family="Arial" font-size="10.00" fill="#bcd506">2×</text>
</g>
<!-- 15 -->
<g id="node6" class="node">
<title>15</title>
<g id="a_node6"><a xlink:title="/Users/mattijnvanhoek/Library/Python/3.7/lib/python/site&#45;packages/ipykernel/iostream.py">
<polygon fill="#0d377f" stroke="#0d377f" points="407.3824,-433.9707 258.6596,-433.9707 258.6596,-379.9785 407.3824,-379.9785 407.3824,-433.9707"/>
<text text-anchor="middle" x="333.021" y="-421.9727" font-family="Arial" font-size="10.00" fill="#ffffff">iostream:320:_schedule_flush</text>
<text text-anchor="middle" x="333.021" y="-410.4736" font-family="Arial" font-size="10.00" fill="#ffffff">9.25%</text>
<text text-anchor="middle" x="333.021" y="-398.9746" font-family="Arial" font-size="10.00" fill="#ffffff">(3.25%)</text>
<text text-anchor="middle" x="333.021" y="-387.4756" font-family="Arial" font-size="10.00" fill="#ffffff">2×</text>
</a>
</g>
</g>
<!-- 2&#45;&gt;15 -->
<g id="edge4" class="edge">
<title>2&#45;&gt;15</title>
<path fill="none" stroke="#0d377f" stroke-width=".5" d="M249.5485,-474.7472C264.2354,-462.8227 281.5075,-448.7992 296.5181,-436.6119"/>
<polygon fill="#0d377f" stroke="#0d377f" stroke-width=".5" points="297.5436,-437.3573 299.4886,-434.2001 295.9992,-435.4552 297.5436,-437.3573"/>
<text text-anchor="middle" x="303.1982" y="-457.9707" font-family="Arial" font-size="10.00" fill="#0d377f">9.25%</text>
<text text-anchor="middle" x="303.1982" y="-446.4717" font-family="Arial" font-size="10.00" fill="#0d377f">2×</text>
</g>
<!-- 12 -->
<g id="node8" class="node">
<title>12</title>
<g id="a_node8"><a xlink:title="/usr/local/Cellar/python/3.7.2_2/Frameworks/Python.framework/Versions/3.7/lib/python3.7/threading.py">
<polygon fill="#0d257a" stroke="#0d257a" points="171.3727,-243.9824 52.6693,-243.9824 52.6693,-189.9902 171.3727,-189.9902 171.3727,-243.9824"/>
<text text-anchor="middle" x="112.021" y="-231.9844" font-family="Arial" font-size="10.00" fill="#ffffff">threading:1080:is_alive</text>
<text text-anchor="middle" x="112.021" y="-220.4854" font-family="Arial" font-size="10.00" fill="#ffffff">5.65%</text>
<text text-anchor="middle" x="112.021" y="-208.9863" font-family="Arial" font-size="10.00" fill="#ffffff">(1.20%)</text>
<text text-anchor="middle" x="112.021" y="-197.4873" font-family="Arial" font-size="10.00" fill="#ffffff">3×</text>
</a>
</g>
</g>
<!-- 8&#45;&gt;12 -->
<g id="edge7" class="edge">
<title>8&#45;&gt;12</title>
<path fill="none" stroke="#0d257a" stroke-width=".5" d="M192.6397,-284.759C178.455,-272.8344 161.7733,-258.8109 147.276,-246.6236"/>
<polygon fill="#0d257a" stroke="#0d257a" stroke-width=".5" points="147.8744,-245.5264 144.407,-244.2118 146.2978,-247.4017 147.8744,-245.5264"/>
<text text-anchor="middle" x="196.1982" y="-267.9824" font-family="Arial" font-size="10.00" fill="#0d257a">5.65%</text>
<text text-anchor="middle" x="196.1982" y="-256.4834" font-family="Arial" font-size="10.00" fill="#0d257a">3×</text>
</g>
<!-- 14 -->
<g id="node9" class="node">
<title>14</title>
<g id="a_node9"><a xlink:title="/Users/mattijnvanhoek/Library/Python/3.7/lib/python/site&#45;packages/zmq/sugar/socket.py">
<polygon fill="#99d007" stroke="#99d007" points="269.3483,-243.9824 180.6937,-243.9824 180.6937,-189.9902 269.3483,-189.9902 269.3483,-243.9824"/>
<text text-anchor="middle" x="225.021" y="-231.9844" font-family="Arial" font-size="10.00" fill="#ffffff">socket:337:send</text>
<text text-anchor="middle" x="225.021" y="-220.4854" font-family="Arial" font-size="10.00" fill="#ffffff">68.15%</text>
<text text-anchor="middle" x="225.021" y="-208.9863" font-family="Arial" font-size="10.00" fill="#ffffff">(68.15%)</text>
<text text-anchor="middle" x="225.021" y="-197.4873" font-family="Arial" font-size="10.00" fill="#ffffff">3×</text>
</a>
</g>
</g>
<!-- 8&#45;&gt;14 -->
<g id="edge8" class="edge">
<title>8&#45;&gt;14</title>
<path fill="none" stroke="#99d007" stroke-width="2.73" d="M225.021,-284.759C225.021,-274.7225 225.021,-263.1991 225.021,-252.5351"/>
<polygon fill="#99d007" stroke="#99d007" stroke-width="2.73" points="227.9261,-252.5118 225.021,-244.2118 222.1161,-252.5118 227.9261,-252.5118"/>
<text text-anchor="middle" x="241.979" y="-267.9824" font-family="Arial" font-size="10.00" fill="#99d007">68.15%</text>
<text text-anchor="middle" x="241.979" y="-256.4834" font-family="Arial" font-size="10.00" fill="#99d007">3×</text>
</g>
<!-- 16 -->
<g id="node10" class="node">
<title>16</title>
<g id="a_node10"><a xlink:title="/Users/mattijnvanhoek/Library/Python/3.7/lib/python/site&#45;packages/ipykernel/iostream.py">
<polygon fill="#0d0f73" stroke="#0d0f73" points="403.5385,-243.9824 278.5035,-243.9824 278.5035,-189.9902 403.5385,-189.9902 403.5385,-243.9824"/>
<text text-anchor="middle" x="341.021" y="-231.9844" font-family="Arial" font-size="10.00" fill="#ffffff">iostream:93:_event_pipe</text>
<text text-anchor="middle" x="341.021" y="-220.4854" font-family="Arial" font-size="10.00" fill="#ffffff">0.51%</text>
<text text-anchor="middle" x="341.021" y="-208.9863" font-family="Arial" font-size="10.00" fill="#ffffff">(0.51%)</text>
<text text-anchor="middle" x="341.021" y="-197.4873" font-family="Arial" font-size="10.00" fill="#ffffff">3×</text>
</a>
</g>
</g>
<!-- 8&#45;&gt;16 -->
<g id="edge9" class="edge">
<title>8&#45;&gt;16</title>
<path fill="none" stroke="#0d0f73" stroke-width=".5" d="M258.2619,-284.759C272.8233,-272.8344 289.9478,-258.8109 304.8301,-246.6236"/>
<polygon fill="#0d0f73" stroke="#0d0f73" stroke-width=".5" points="305.8434,-247.3771 307.7752,-244.2118 304.2912,-245.4816 305.8434,-247.3771"/>
<text text-anchor="middle" x="311.1982" y="-267.9824" font-family="Arial" font-size="10.00" fill="#0d0f73">0.51%</text>
<text text-anchor="middle" x="311.1982" y="-256.4834" font-family="Arial" font-size="10.00" fill="#0d0f73">3×</text>
</g>
<!-- 15&#45;&gt;8 -->
<g id="edge12" class="edge">
<title>15&#45;&gt;8</title>
<path fill="none" stroke="#0d277a" stroke-width=".5" d="M302.0725,-379.7531C288.5154,-367.8286 272.5719,-353.8051 258.716,-341.6178"/>
<polygon fill="#0d277a" stroke="#0d277a" stroke-width=".5" points="259.4111,-340.5977 255.974,-339.206 257.793,-342.4374 259.4111,-340.5977"/>
<text text-anchor="middle" x="306.1982" y="-362.9766" font-family="Arial" font-size="10.00" fill="#0d277a">5.99%</text>
<text text-anchor="middle" x="306.1982" y="-351.4775" font-family="Arial" font-size="10.00" fill="#0d277a">1×</text>
</g>
<!-- 3&#45;&gt;2 -->
<g id="edge5" class="edge">
<title>3&#45;&gt;2</title>
<path fill="none" stroke="#eb7d03" stroke-width="3.47" d="M216.021,-569.7414C216.021,-560.1024 216.021,-549.0919 216.021,-538.7884"/>
<polygon fill="#eb7d03" stroke="#eb7d03" stroke-width="3.47" points="219.2761,-538.4942 216.021,-529.1942 212.7661,-538.4943 219.2761,-538.4942"/>
<text text-anchor="middle" x="232.979" y="-552.9648" font-family="Arial" font-size="10.00" fill="#eb7d03">86.82%</text>
<text text-anchor="middle" x="232.979" y="-541.4658" font-family="Arial" font-size="10.00" fill="#eb7d03">2×</text>
</g>
<!-- 10 -->
<g id="node12" class="node">
<title>10</title>
<g id="a_node12"><a xlink:title="/usr/local/Cellar/python/3.7.2_2/Frameworks/Python.framework/Versions/3.7/lib/python3.7/threading.py">
<polygon fill="#0d1e78" stroke="#0d1e78" points="201.9639,-148.9883 22.0781,-148.9883 22.0781,-94.9961 201.9639,-94.9961 201.9639,-148.9883"/>
<text text-anchor="middle" x="112.021" y="-136.9902" font-family="Arial" font-size="10.00" fill="#ffffff">threading:1038:_wait_for_tstate_lock</text>
<text text-anchor="middle" x="112.021" y="-125.4912" font-family="Arial" font-size="10.00" fill="#ffffff">4.11%</text>
<text text-anchor="middle" x="112.021" y="-113.9922" font-family="Arial" font-size="10.00" fill="#ffffff">(1.20%)</text>
<text text-anchor="middle" x="112.021" y="-102.4932" font-family="Arial" font-size="10.00" fill="#ffffff">3×</text>
</a>
</g>
</g>
<!-- 12&#45;&gt;10 -->
<g id="edge11" class="edge">
<title>12&#45;&gt;10</title>
<path fill="none" stroke="#0d1e78" stroke-width=".5" d="M112.021,-189.7648C112.021,-178.2378 112.021,-164.7494 112.021,-152.8542"/>
<polygon fill="#0d1e78" stroke="#0d1e78" stroke-width=".5" points="113.2461,-152.7176 112.021,-149.2177 110.7961,-152.7177 113.2461,-152.7176"/>
<text text-anchor="middle" x="125.8271" y="-172.9883" font-family="Arial" font-size="10.00" fill="#0d1e78">4.11%</text>
<text text-anchor="middle" x="125.8271" y="-161.4893" font-family="Arial" font-size="10.00" fill="#0d1e78">3×</text>
</g>
<!-- 9 -->
<g id="node11" class="node">
<title>9</title>
<g id="a_node11"><a xlink:title="~">
<polygon fill="#0d1976" stroke="#0d1976" points="224.063,-53.9941 -.021,-53.9941 -.021,-.002 224.063,-.002 224.063,-53.9941"/>
<text text-anchor="middle" x="112.021" y="-41.9961" font-family="Arial" font-size="10.00" fill="#ffffff">~:0:&lt;method &#39;acquire&#39; of &#39;_thread.lock&#39; objects&gt;</text>
<text text-anchor="middle" x="112.021" y="-30.4971" font-family="Arial" font-size="10.00" fill="#ffffff">2.91%</text>
<text text-anchor="middle" x="112.021" y="-18.998" font-family="Arial" font-size="10.00" fill="#ffffff">(2.91%)</text>
<text text-anchor="middle" x="112.021" y="-7.499" font-family="Arial" font-size="10.00" fill="#ffffff">3×</text>
</a>
</g>
</g>
<!-- 10&#45;&gt;9 -->
<g id="edge10" class="edge">
<title>10&#45;&gt;9</title>
<path fill="none" stroke="#0d1976" stroke-width=".5" d="M112.021,-94.7707C112.021,-83.2436 112.021,-69.7552 112.021,-57.86"/>
<polygon fill="#0d1976" stroke="#0d1976" stroke-width=".5" points="113.2461,-57.7235 112.021,-54.2235 110.7961,-57.7236 113.2461,-57.7235"/>
<text text-anchor="middle" x="126.1982" y="-77.9941" font-family="Arial" font-size="10.00" fill="#0d1976">2.91%</text>
<text text-anchor="middle" x="126.1982" y="-66.4951" font-family="Arial" font-size="10.00" fill="#0d1976">3×</text>
</g>
</g>
</svg>
